<svg width="28" height="21" viewBox="0 0 28 21" fill="none" xmlns="http://www.w3.org/2000/svg">
<path d="M3.59772 19.0677C2.88549 19.0677 2.27039 18.8543 1.7524 18.4276C1.256 17.9823 1.0078 17.4535 1.0078 16.8412V3.48181C1.0078 2.86951 1.256 2.34997 1.7524 1.92322C2.27039 1.47791 2.88549 1.25525 3.59772 1.25525H19.1373C19.8495 1.25525 20.4538 1.47791 20.9502 1.92322C21.4682 2.34997 21.7272 2.86951 21.7272 3.48181V8.49158L26.907 4.03845V16.2845L21.7272 11.8314V16.8412C21.7272 17.4535 21.4682 17.9823 20.9502 18.4276C20.4538 18.8543 19.8495 19.0677 19.1373 19.0677H3.59772Z" stroke="black" stroke-width="2"/>
</svg>
