<svg width="26" height="25" viewBox="0 0 26 25" fill="none" xmlns="http://www.w3.org/2000/svg">
<path d="M7.51274 22.181V15.5013C7.51274 14.9109 7.7856 14.3445 8.27132 13.9269C8.75702 13.5094 9.41578 13.2748 10.1027 13.2748H15.2825C15.9694 13.2748 16.6281 13.5094 17.1138 13.9269C17.5996 14.3445 17.8724 14.9109 17.8724 15.5013V22.181M1.03793 8.82166L12.6926 1.02869L24.3472 8.82166V21.0678C24.3472 21.6582 24.0744 22.2246 23.5887 22.6422C23.1029 23.0597 22.4442 23.2943 21.7573 23.2943H3.62786C2.94097 23.2943 2.28221 23.0597 1.79651 22.6422C1.31079 22.2246 1.03793 21.6582 1.03793 21.0678V8.82166Z" stroke="white" stroke-width="2" stroke-linecap="round" stroke-linejoin="round"/>
</svg>
