<svg width="26" height="34" viewBox="0 0 26 34" fill="none" xmlns="http://www.w3.org/2000/svg">
<path d="M10.1118 16.7307H8.18386V14.6154H10.1118V16.7307ZM17.8238 16.7307H15.8958V14.6154H17.8238V16.7307ZM25.5357 14.6154V18.846H23.6077V24.1343C23.6077 24.5749 23.5324 24.9881 23.3818 25.3737C23.2312 25.7593 23.0253 26.0953 22.7642 26.3818C22.5031 26.6682 22.1969 26.894 21.8454 27.0593C21.494 27.2246 21.1174 27.3072 20.7157 27.3072H16.7393L10.1118 33.5209V27.3072H5.29188C4.89022 27.3072 4.51366 27.2246 4.1622 27.0593C3.81075 26.894 3.50448 26.6682 3.2434 26.3818C2.98232 26.0953 2.77647 25.7593 2.62584 25.3737C2.47522 24.9881 2.39991 24.5749 2.39991 24.1343V18.846H0.471924V14.6154H2.39991V11.4425C2.39991 11.0018 2.47522 10.5886 2.62584 10.203C2.77647 9.81745 2.98232 9.48142 3.2434 9.19498C3.50448 8.90853 3.81075 8.68268 4.1622 8.51742C4.51366 8.35216 4.89022 8.26953 5.29188 8.26953H12.0398V4.81565C11.7486 4.62836 11.5177 4.36946 11.347 4.03894C11.1762 3.70843 11.0859 3.35588 11.0758 2.9813C11.0758 2.68383 11.126 2.4084 11.2265 2.15501C11.3269 1.90161 11.4624 1.68127 11.6331 1.49398C11.8038 1.30669 12.0097 1.15245 12.2507 1.03126C12.4917 0.91007 12.7427 0.854984 13.0038 0.866001C13.2749 0.866001 13.526 0.921087 13.7569 1.03126C13.9879 1.14143 14.1887 1.29016 14.3594 1.47745C14.5301 1.66475 14.6707 1.8906 14.7812 2.15501C14.8916 2.41942 14.9418 2.69485 14.9318 2.9813C14.9318 3.35588 14.8464 3.70843 14.6757 4.03894C14.505 4.36946 14.2691 4.62836 13.9678 4.81565V8.26953H20.7157C21.1174 8.26953 21.494 8.35216 21.8454 8.51742C22.1969 8.68268 22.5031 8.90853 22.7642 9.19498C23.0253 9.48142 23.2312 9.81745 23.3818 10.203C23.5324 10.5886 23.6077 11.0018 23.6077 11.4425V14.6154H25.5357ZM21.6797 11.4425C21.6797 11.156 21.5843 10.9081 21.3935 10.6988C21.2028 10.4895 20.9768 10.3848 20.7157 10.3848H5.29188C5.0308 10.3848 4.80486 10.4895 4.61407 10.6988C4.42328 10.9081 4.32789 11.156 4.32789 11.4425V24.1343C4.32789 24.4207 4.42328 24.6686 4.61407 24.8779C4.80486 25.0872 5.0308 25.1919 5.29188 25.1919H12.0398V28.9267L16.0163 25.1919H20.7157C20.9768 25.1919 21.2028 25.0872 21.3935 24.8779C21.5843 24.6686 21.6797 24.4207 21.6797 24.1343V11.4425ZM8.86166 19.0774C9.41395 19.6833 10.0466 20.146 10.7595 20.4655C11.4725 20.785 12.2206 20.9503 13.0038 20.9613C13.7871 20.9613 14.5352 20.8016 15.2481 20.4821C15.9611 20.1626 16.5937 19.6943 17.146 19.0774L18.5016 20.5812C17.7685 21.3855 16.9301 22.0024 15.9862 22.4321C15.0423 22.8618 14.0481 23.0766 13.0038 23.0766C11.9695 23.0766 10.9804 22.8618 10.0365 22.4321C9.09262 22.0024 8.24913 21.3855 7.50605 20.5812L8.86166 19.0774Z" fill="white"/>
<path d="M5.29224 9.88513C4.9295 9.88513 4.61092 10.0178 4.35181 10.2543L4.24438 10.3617C3.96861 10.6643 3.82837 11.0333 3.82837 11.4427V24.1342C3.82837 24.4924 3.93599 24.8192 4.14771 25.098L4.24438 25.2152C4.52089 25.5185 4.87777 25.6918 5.29224 25.6918H11.5403V30.0824L12.3821 29.2914L16.2141 25.6918H20.7161C21.1303 25.6917 21.4855 25.5174 21.762 25.2142L21.7629 25.2152C22.0387 24.9126 22.1799 24.5436 22.1799 24.1342V11.4427C22.1799 11.0846 22.0721 10.7576 21.8606 10.4789L21.7629 10.3617C21.4865 10.0585 21.1304 9.88522 20.7161 9.88513H5.29224ZM8.87915 19.8031C9.30168 20.1969 9.76345 20.5253 10.2668 20.7836L10.5549 20.9222C11.2332 21.2262 11.9422 21.4013 12.679 21.4486L12.9963 21.4613H13.0042C13.7509 21.4613 14.4704 21.3277 15.1594 21.0609L15.4524 20.9379C16.0697 20.6612 16.6281 20.2822 17.1301 19.807L17.8167 20.5687C17.2954 21.0792 16.7259 21.4962 16.1047 21.8187L15.7786 21.9769C14.9004 22.3766 13.9773 22.5765 13.0042 22.5765C12.1619 22.5765 11.3532 22.4237 10.5754 22.1176L10.2434 21.9769C9.49406 21.6358 8.81073 21.1665 8.19165 20.5668L8.87915 19.8031ZM17.3235 15.1156V16.2308H16.3958V15.1156H17.3235ZM9.61157 15.1156V16.2308H8.68384V15.1156H9.61157ZM12.5403 4.54236L12.3098 4.3949C12.098 4.25858 11.9247 4.06825 11.7913 3.80994C11.656 3.54805 11.584 3.27034 11.5754 2.97205C11.5762 2.79548 11.5995 2.63412 11.6418 2.48572L11.6917 2.33923C11.7715 2.13785 11.8752 1.96974 12.0022 1.83044C12.0974 1.72605 12.2093 1.63408 12.3391 1.55408L12.4749 1.47791C12.6004 1.41477 12.726 1.3794 12.8538 1.36853L12.9827 1.3656H13.0042C13.1548 1.36563 13.2918 1.38862 13.4182 1.43201L13.5413 1.48279C13.6712 1.54475 13.7876 1.62173 13.8909 1.71521L13.9895 1.81384C14.1169 1.95357 14.2284 2.1297 14.3196 2.34802C14.4022 2.54587 14.4394 2.74985 14.4319 2.96423V2.98083C14.4319 3.2024 14.3948 3.41247 14.3196 3.61267L14.2317 3.80994C14.1003 4.06427 13.9242 4.25372 13.7034 4.39099L13.468 4.53748V8.7699H20.7161C20.9638 8.76993 21.1964 8.80731 21.4163 8.8822L21.6331 8.97009C21.8519 9.07305 22.0487 9.20364 22.2249 9.36267L22.3948 9.53162C22.5576 9.71027 22.6968 9.91393 22.8108 10.1449L22.9163 10.3851C23.0428 10.709 23.1077 11.0603 23.1077 11.4427V15.1156H25.0354V18.3461H23.1077V24.1342C23.1077 24.4211 23.071 24.6904 22.9993 24.9437L22.9163 25.1918C22.8189 25.4411 22.6958 25.6622 22.5491 25.8578L22.3948 26.0453C22.2323 26.2235 22.0494 26.373 21.845 26.4945L21.6331 26.6068C21.3506 26.7396 21.0466 26.807 20.7161 26.807H16.5413L16.3977 26.9427L10.6116 32.3656V26.807H5.29224C5.0442 26.807 4.81119 26.7688 4.59106 26.6937L4.37524 26.6068C4.15618 26.5038 3.95871 26.3734 3.78247 26.2142L3.61255 26.0453C3.44982 25.8667 3.31151 25.6628 3.19751 25.432L3.09204 25.1918C2.9655 24.8678 2.89966 24.5167 2.89966 24.1342V18.3461H0.971924V15.1156H2.89966V11.4427C2.89966 11.1559 2.93638 10.8865 3.00806 10.6332L3.09204 10.3851C3.18941 10.1359 3.31158 9.91461 3.45825 9.71912L3.61255 9.53162C3.77519 9.35318 3.95869 9.20401 4.16333 9.0824L4.37524 8.97009C4.65779 8.83726 4.9616 8.7699 5.29224 8.7699H12.5403V4.54236Z" stroke="black" stroke-opacity="0.8"/>
</svg>
