<svg width="35" height="12" viewBox="0 0 35 12" fill="none" xmlns="http://www.w3.org/2000/svg">
<path d="M4.73047 1.0127V11H3.08301V2.96777L0.642578 3.79492V2.43457L4.53223 1.0127H4.73047ZM14.8613 9.6875V11H8.18945V9.87207L11.4297 6.33789C11.7852 5.93685 12.0654 5.59049 12.2705 5.29883C12.4756 5.00716 12.6191 4.74512 12.7012 4.5127C12.7878 4.27572 12.8311 4.04557 12.8311 3.82227C12.8311 3.50781 12.7718 3.2321 12.6533 2.99512C12.5394 2.75358 12.3708 2.56445 12.1475 2.42773C11.9242 2.28646 11.653 2.21582 11.334 2.21582C10.9648 2.21582 10.6549 2.29557 10.4043 2.45508C10.1536 2.61458 9.96452 2.83561 9.83691 3.11816C9.70931 3.39616 9.64551 3.71517 9.64551 4.0752H7.99805C7.99805 3.49642 8.13021 2.96777 8.39453 2.48926C8.65885 2.00618 9.04167 1.62337 9.54297 1.34082C10.0443 1.05371 10.6481 0.910156 11.3545 0.910156C12.0199 0.910156 12.585 1.02181 13.0498 1.24512C13.5146 1.46842 13.8678 1.78516 14.1094 2.19531C14.3555 2.60547 14.4785 3.09082 14.4785 3.65137C14.4785 3.96126 14.4284 4.26888 14.3281 4.57422C14.2279 4.87956 14.0843 5.1849 13.8975 5.49023C13.7152 5.79102 13.4987 6.09408 13.248 6.39941C12.9974 6.7002 12.7217 7.00553 12.4209 7.31543L10.2676 9.6875H14.8613ZM16.2627 10.1797C16.2627 9.92448 16.3493 9.71029 16.5225 9.53711C16.6956 9.35938 16.9303 9.27051 17.2266 9.27051C17.5273 9.27051 17.762 9.35938 17.9307 9.53711C18.1038 9.71029 18.1904 9.92448 18.1904 10.1797C18.1904 10.4349 18.1038 10.6491 17.9307 10.8223C17.762 10.9954 17.5273 11.082 17.2266 11.082C16.9303 11.082 16.6956 10.9954 16.5225 10.8223C16.3493 10.6491 16.2627 10.4349 16.2627 10.1797ZM16.2695 4.35547C16.2695 4.10026 16.3561 3.88607 16.5293 3.71289C16.7025 3.53516 16.9372 3.44629 17.2334 3.44629C17.5342 3.44629 17.7689 3.53516 17.9375 3.71289C18.1107 3.88607 18.1973 4.10026 18.1973 4.35547C18.1973 4.61068 18.1107 4.82487 17.9375 4.99805C17.7689 5.17122 17.5342 5.25781 17.2334 5.25781C16.9372 5.25781 16.7025 5.17122 16.5293 4.99805C16.3561 4.82487 16.2695 4.61068 16.2695 4.35547ZM21.7725 5.27832H22.7568C23.1396 5.27832 23.4564 5.21224 23.707 5.08008C23.9622 4.94792 24.1514 4.76562 24.2744 4.5332C24.3975 4.30078 24.459 4.03418 24.459 3.7334C24.459 3.41895 24.402 3.15007 24.2881 2.92676C24.1787 2.69889 24.0101 2.52344 23.7822 2.40039C23.5589 2.27734 23.2741 2.21582 22.9277 2.21582C22.6361 2.21582 22.3717 2.27507 22.1348 2.39355C21.9023 2.50749 21.7178 2.67155 21.5811 2.88574C21.4443 3.09538 21.376 3.34603 21.376 3.6377H19.7217C19.7217 3.10905 19.8607 2.63965 20.1387 2.22949C20.4167 1.81934 20.7949 1.49805 21.2734 1.26562C21.7565 1.02865 22.2988 0.910156 22.9004 0.910156C23.543 0.910156 24.1035 1.01725 24.582 1.23145C25.0651 1.44108 25.4411 1.75553 25.71 2.1748C25.9788 2.59408 26.1133 3.11361 26.1133 3.7334C26.1133 4.01595 26.0472 4.30306 25.915 4.59473C25.7829 4.88639 25.5869 5.15299 25.3271 5.39453C25.0674 5.63151 24.7438 5.8252 24.3564 5.97559C23.9691 6.12142 23.5202 6.19434 23.0098 6.19434H21.7725V5.27832ZM21.7725 6.56348V5.66113H23.0098C23.5931 5.66113 24.0898 5.72949 24.5 5.86621C24.9147 6.00293 25.252 6.19206 25.5117 6.43359C25.7715 6.67057 25.9606 6.94173 26.0791 7.24707C26.2021 7.55241 26.2637 7.87598 26.2637 8.21777C26.2637 8.68262 26.1794 9.09733 26.0107 9.46191C25.8467 9.82194 25.612 10.1273 25.3066 10.3779C25.0013 10.6286 24.6436 10.8177 24.2334 10.9453C23.8278 11.0729 23.3857 11.1367 22.9072 11.1367C22.4788 11.1367 22.0687 11.0775 21.6768 10.959C21.2848 10.8405 20.9339 10.665 20.624 10.4326C20.3141 10.1956 20.068 9.90169 19.8857 9.55078C19.708 9.19531 19.6191 8.78516 19.6191 8.32031H21.2666C21.2666 8.61654 21.335 8.87858 21.4717 9.10645C21.613 9.32975 21.8089 9.50521 22.0596 9.63281C22.3148 9.76042 22.6064 9.82422 22.9346 9.82422C23.2809 9.82422 23.5794 9.7627 23.8301 9.63965C24.0807 9.5166 24.2721 9.33431 24.4043 9.09277C24.541 8.85124 24.6094 8.55957 24.6094 8.21777C24.6094 7.8304 24.5342 7.51595 24.3838 7.27441C24.2334 7.03288 24.0192 6.85514 23.7412 6.74121C23.4632 6.62272 23.1351 6.56348 22.7568 6.56348H21.7725ZM34.2822 5.18945V6.81641C34.2822 7.5957 34.2048 8.26107 34.0498 8.8125C33.8994 9.35938 33.6807 9.80371 33.3936 10.1455C33.1064 10.4873 32.7624 10.738 32.3613 10.8975C31.9648 11.057 31.5205 11.1367 31.0283 11.1367C30.6364 11.1367 30.2718 11.0866 29.9346 10.9863C29.6019 10.8861 29.3011 10.7288 29.0322 10.5146C28.7633 10.3005 28.5332 10.0247 28.3418 9.6875C28.1549 9.3457 28.0091 8.93783 27.9043 8.46387C27.804 7.98991 27.7539 7.44076 27.7539 6.81641V5.18945C27.7539 4.4056 27.8314 3.74479 27.9863 3.20703C28.1413 2.66471 28.3623 2.22493 28.6494 1.8877C28.9365 1.5459 29.2783 1.29753 29.6748 1.14258C30.0758 0.98763 30.5225 0.910156 31.0146 0.910156C31.4111 0.910156 31.7757 0.960286 32.1084 1.06055C32.4456 1.15625 32.7464 1.30892 33.0107 1.51855C33.2796 1.72819 33.5075 2.00163 33.6943 2.33887C33.8857 2.67155 34.0316 3.07487 34.1318 3.54883C34.2321 4.01823 34.2822 4.5651 34.2822 5.18945ZM32.6348 7.04883V4.94336C32.6348 4.54688 32.612 4.19824 32.5664 3.89746C32.5208 3.59212 32.4525 3.33464 32.3613 3.125C32.2747 2.91081 32.1654 2.73763 32.0332 2.60547C31.901 2.46875 31.7507 2.37077 31.582 2.31152C31.4134 2.24772 31.2243 2.21582 31.0146 2.21582C30.7594 2.21582 30.5316 2.26595 30.3311 2.36621C30.1305 2.46191 29.9619 2.61686 29.8252 2.83105C29.6885 3.04525 29.5837 3.3278 29.5107 3.67871C29.4424 4.02507 29.4082 4.44661 29.4082 4.94336V7.04883C29.4082 7.44987 29.431 7.80306 29.4766 8.1084C29.5221 8.41374 29.5905 8.67578 29.6816 8.89453C29.7728 9.10872 29.8822 9.28646 30.0098 9.42773C30.1419 9.56445 30.2923 9.66471 30.4609 9.72852C30.6341 9.79232 30.8232 9.82422 31.0283 9.82422C31.2881 9.82422 31.5182 9.77409 31.7188 9.67383C31.9193 9.57357 32.0879 9.41406 32.2246 9.19531C32.3613 8.972 32.4639 8.68262 32.5322 8.32715C32.6006 7.97168 32.6348 7.54557 32.6348 7.04883Z" fill="black" fill-opacity="0.7"/>
<path d="M4.73047 1.0127V11H3.08301V2.96777L0.642578 3.79492V2.43457L4.53223 1.0127H4.73047ZM14.8613 9.6875V11H8.18945V9.87207L11.4297 6.33789C11.7852 5.93685 12.0654 5.59049 12.2705 5.29883C12.4756 5.00716 12.6191 4.74512 12.7012 4.5127C12.7878 4.27572 12.8311 4.04557 12.8311 3.82227C12.8311 3.50781 12.7718 3.2321 12.6533 2.99512C12.5394 2.75358 12.3708 2.56445 12.1475 2.42773C11.9242 2.28646 11.653 2.21582 11.334 2.21582C10.9648 2.21582 10.6549 2.29557 10.4043 2.45508C10.1536 2.61458 9.96452 2.83561 9.83691 3.11816C9.70931 3.39616 9.64551 3.71517 9.64551 4.0752H7.99805C7.99805 3.49642 8.13021 2.96777 8.39453 2.48926C8.65885 2.00618 9.04167 1.62337 9.54297 1.34082C10.0443 1.05371 10.6481 0.910156 11.3545 0.910156C12.0199 0.910156 12.585 1.02181 13.0498 1.24512C13.5146 1.46842 13.8678 1.78516 14.1094 2.19531C14.3555 2.60547 14.4785 3.09082 14.4785 3.65137C14.4785 3.96126 14.4284 4.26888 14.3281 4.57422C14.2279 4.87956 14.0843 5.1849 13.8975 5.49023C13.7152 5.79102 13.4987 6.09408 13.248 6.39941C12.9974 6.7002 12.7217 7.00553 12.4209 7.31543L10.2676 9.6875H14.8613ZM16.2627 10.1797C16.2627 9.92448 16.3493 9.71029 16.5225 9.53711C16.6956 9.35938 16.9303 9.27051 17.2266 9.27051C17.5273 9.27051 17.762 9.35938 17.9307 9.53711C18.1038 9.71029 18.1904 9.92448 18.1904 10.1797C18.1904 10.4349 18.1038 10.6491 17.9307 10.8223C17.762 10.9954 17.5273 11.082 17.2266 11.082C16.9303 11.082 16.6956 10.9954 16.5225 10.8223C16.3493 10.6491 16.2627 10.4349 16.2627 10.1797ZM16.2695 4.35547C16.2695 4.10026 16.3561 3.88607 16.5293 3.71289C16.7025 3.53516 16.9372 3.44629 17.2334 3.44629C17.5342 3.44629 17.7689 3.53516 17.9375 3.71289C18.1107 3.88607 18.1973 4.10026 18.1973 4.35547C18.1973 4.61068 18.1107 4.82487 17.9375 4.99805C17.7689 5.17122 17.5342 5.25781 17.2334 5.25781C16.9372 5.25781 16.7025 5.17122 16.5293 4.99805C16.3561 4.82487 16.2695 4.61068 16.2695 4.35547ZM21.7725 5.27832H22.7568C23.1396 5.27832 23.4564 5.21224 23.707 5.08008C23.9622 4.94792 24.1514 4.76562 24.2744 4.5332C24.3975 4.30078 24.459 4.03418 24.459 3.7334C24.459 3.41895 24.402 3.15007 24.2881 2.92676C24.1787 2.69889 24.0101 2.52344 23.7822 2.40039C23.5589 2.27734 23.2741 2.21582 22.9277 2.21582C22.6361 2.21582 22.3717 2.27507 22.1348 2.39355C21.9023 2.50749 21.7178 2.67155 21.5811 2.88574C21.4443 3.09538 21.376 3.34603 21.376 3.6377H19.7217C19.7217 3.10905 19.8607 2.63965 20.1387 2.22949C20.4167 1.81934 20.7949 1.49805 21.2734 1.26562C21.7565 1.02865 22.2988 0.910156 22.9004 0.910156C23.543 0.910156 24.1035 1.01725 24.582 1.23145C25.0651 1.44108 25.4411 1.75553 25.71 2.1748C25.9788 2.59408 26.1133 3.11361 26.1133 3.7334C26.1133 4.01595 26.0472 4.30306 25.915 4.59473C25.7829 4.88639 25.5869 5.15299 25.3271 5.39453C25.0674 5.63151 24.7438 5.8252 24.3564 5.97559C23.9691 6.12142 23.5202 6.19434 23.0098 6.19434H21.7725V5.27832ZM21.7725 6.56348V5.66113H23.0098C23.5931 5.66113 24.0898 5.72949 24.5 5.86621C24.9147 6.00293 25.252 6.19206 25.5117 6.43359C25.7715 6.67057 25.9606 6.94173 26.0791 7.24707C26.2021 7.55241 26.2637 7.87598 26.2637 8.21777C26.2637 8.68262 26.1794 9.09733 26.0107 9.46191C25.8467 9.82194 25.612 10.1273 25.3066 10.3779C25.0013 10.6286 24.6436 10.8177 24.2334 10.9453C23.8278 11.0729 23.3857 11.1367 22.9072 11.1367C22.4788 11.1367 22.0687 11.0775 21.6768 10.959C21.2848 10.8405 20.9339 10.665 20.624 10.4326C20.3141 10.1956 20.068 9.90169 19.8857 9.55078C19.708 9.19531 19.6191 8.78516 19.6191 8.32031H21.2666C21.2666 8.61654 21.335 8.87858 21.4717 9.10645C21.613 9.32975 21.8089 9.50521 22.0596 9.63281C22.3148 9.76042 22.6064 9.82422 22.9346 9.82422C23.2809 9.82422 23.5794 9.7627 23.8301 9.63965C24.0807 9.5166 24.2721 9.33431 24.4043 9.09277C24.541 8.85124 24.6094 8.55957 24.6094 8.21777C24.6094 7.8304 24.5342 7.51595 24.3838 7.27441C24.2334 7.03288 24.0192 6.85514 23.7412 6.74121C23.4632 6.62272 23.1351 6.56348 22.7568 6.56348H21.7725ZM34.2822 5.18945V6.81641C34.2822 7.5957 34.2048 8.26107 34.0498 8.8125C33.8994 9.35938 33.6807 9.80371 33.3936 10.1455C33.1064 10.4873 32.7624 10.738 32.3613 10.8975C31.9648 11.057 31.5205 11.1367 31.0283 11.1367C30.6364 11.1367 30.2718 11.0866 29.9346 10.9863C29.6019 10.8861 29.3011 10.7288 29.0322 10.5146C28.7633 10.3005 28.5332 10.0247 28.3418 9.6875C28.1549 9.3457 28.0091 8.93783 27.9043 8.46387C27.804 7.98991 27.7539 7.44076 27.7539 6.81641V5.18945C27.7539 4.4056 27.8314 3.74479 27.9863 3.20703C28.1413 2.66471 28.3623 2.22493 28.6494 1.8877C28.9365 1.5459 29.2783 1.29753 29.6748 1.14258C30.0758 0.98763 30.5225 0.910156 31.0146 0.910156C31.4111 0.910156 31.7757 0.960286 32.1084 1.06055C32.4456 1.15625 32.7464 1.30892 33.0107 1.51855C33.2796 1.72819 33.5075 2.00163 33.6943 2.33887C33.8857 2.67155 34.0316 3.07487 34.1318 3.54883C34.2321 4.01823 34.2822 4.5651 34.2822 5.18945ZM32.6348 7.04883V4.94336C32.6348 4.54688 32.612 4.19824 32.5664 3.89746C32.5208 3.59212 32.4525 3.33464 32.3613 3.125C32.2747 2.91081 32.1654 2.73763 32.0332 2.60547C31.901 2.46875 31.7507 2.37077 31.582 2.31152C31.4134 2.24772 31.2243 2.21582 31.0146 2.21582C30.7594 2.21582 30.5316 2.26595 30.3311 2.36621C30.1305 2.46191 29.9619 2.61686 29.8252 2.83105C29.6885 3.04525 29.5837 3.3278 29.5107 3.67871C29.4424 4.02507 29.4082 4.44661 29.4082 4.94336V7.04883C29.4082 7.44987 29.431 7.80306 29.4766 8.1084C29.5221 8.41374 29.5905 8.67578 29.6816 8.89453C29.7728 9.10872 29.8822 9.28646 30.0098 9.42773C30.1419 9.56445 30.2923 9.66471 30.4609 9.72852C30.6341 9.79232 30.8232 9.82422 31.0283 9.82422C31.2881 9.82422 31.5182 9.77409 31.7188 9.67383C31.9193 9.57357 32.0879 9.41406 32.2246 9.19531C32.3613 8.972 32.4639 8.68262 32.5322 8.32715C32.6006 7.97168 32.6348 7.54557 32.6348 7.04883Z" fill="black" fill-opacity="0.7"/>
<path d="M4.73047 1.0127V11H3.08301V2.96777L0.642578 3.79492V2.43457L4.53223 1.0127H4.73047ZM14.8613 9.6875V11H8.18945V9.87207L11.4297 6.33789C11.7852 5.93685 12.0654 5.59049 12.2705 5.29883C12.4756 5.00716 12.6191 4.74512 12.7012 4.5127C12.7878 4.27572 12.8311 4.04557 12.8311 3.82227C12.8311 3.50781 12.7718 3.2321 12.6533 2.99512C12.5394 2.75358 12.3708 2.56445 12.1475 2.42773C11.9242 2.28646 11.653 2.21582 11.334 2.21582C10.9648 2.21582 10.6549 2.29557 10.4043 2.45508C10.1536 2.61458 9.96452 2.83561 9.83691 3.11816C9.70931 3.39616 9.64551 3.71517 9.64551 4.0752H7.99805C7.99805 3.49642 8.13021 2.96777 8.39453 2.48926C8.65885 2.00618 9.04167 1.62337 9.54297 1.34082C10.0443 1.05371 10.6481 0.910156 11.3545 0.910156C12.0199 0.910156 12.585 1.02181 13.0498 1.24512C13.5146 1.46842 13.8678 1.78516 14.1094 2.19531C14.3555 2.60547 14.4785 3.09082 14.4785 3.65137C14.4785 3.96126 14.4284 4.26888 14.3281 4.57422C14.2279 4.87956 14.0843 5.1849 13.8975 5.49023C13.7152 5.79102 13.4987 6.09408 13.248 6.39941C12.9974 6.7002 12.7217 7.00553 12.4209 7.31543L10.2676 9.6875H14.8613ZM16.2627 10.1797C16.2627 9.92448 16.3493 9.71029 16.5225 9.53711C16.6956 9.35938 16.9303 9.27051 17.2266 9.27051C17.5273 9.27051 17.762 9.35938 17.9307 9.53711C18.1038 9.71029 18.1904 9.92448 18.1904 10.1797C18.1904 10.4349 18.1038 10.6491 17.9307 10.8223C17.762 10.9954 17.5273 11.082 17.2266 11.082C16.9303 11.082 16.6956 10.9954 16.5225 10.8223C16.3493 10.6491 16.2627 10.4349 16.2627 10.1797ZM16.2695 4.35547C16.2695 4.10026 16.3561 3.88607 16.5293 3.71289C16.7025 3.53516 16.9372 3.44629 17.2334 3.44629C17.5342 3.44629 17.7689 3.53516 17.9375 3.71289C18.1107 3.88607 18.1973 4.10026 18.1973 4.35547C18.1973 4.61068 18.1107 4.82487 17.9375 4.99805C17.7689 5.17122 17.5342 5.25781 17.2334 5.25781C16.9372 5.25781 16.7025 5.17122 16.5293 4.99805C16.3561 4.82487 16.2695 4.61068 16.2695 4.35547ZM21.7725 5.27832H22.7568C23.1396 5.27832 23.4564 5.21224 23.707 5.08008C23.9622 4.94792 24.1514 4.76562 24.2744 4.5332C24.3975 4.30078 24.459 4.03418 24.459 3.7334C24.459 3.41895 24.402 3.15007 24.2881 2.92676C24.1787 2.69889 24.0101 2.52344 23.7822 2.40039C23.5589 2.27734 23.2741 2.21582 22.9277 2.21582C22.6361 2.21582 22.3717 2.27507 22.1348 2.39355C21.9023 2.50749 21.7178 2.67155 21.5811 2.88574C21.4443 3.09538 21.376 3.34603 21.376 3.6377H19.7217C19.7217 3.10905 19.8607 2.63965 20.1387 2.22949C20.4167 1.81934 20.7949 1.49805 21.2734 1.26562C21.7565 1.02865 22.2988 0.910156 22.9004 0.910156C23.543 0.910156 24.1035 1.01725 24.582 1.23145C25.0651 1.44108 25.4411 1.75553 25.71 2.1748C25.9788 2.59408 26.1133 3.11361 26.1133 3.7334C26.1133 4.01595 26.0472 4.30306 25.915 4.59473C25.7829 4.88639 25.5869 5.15299 25.3271 5.39453C25.0674 5.63151 24.7438 5.8252 24.3564 5.97559C23.9691 6.12142 23.5202 6.19434 23.0098 6.19434H21.7725V5.27832ZM21.7725 6.56348V5.66113H23.0098C23.5931 5.66113 24.0898 5.72949 24.5 5.86621C24.9147 6.00293 25.252 6.19206 25.5117 6.43359C25.7715 6.67057 25.9606 6.94173 26.0791 7.24707C26.2021 7.55241 26.2637 7.87598 26.2637 8.21777C26.2637 8.68262 26.1794 9.09733 26.0107 9.46191C25.8467 9.82194 25.612 10.1273 25.3066 10.3779C25.0013 10.6286 24.6436 10.8177 24.2334 10.9453C23.8278 11.0729 23.3857 11.1367 22.9072 11.1367C22.4788 11.1367 22.0687 11.0775 21.6768 10.959C21.2848 10.8405 20.9339 10.665 20.624 10.4326C20.3141 10.1956 20.068 9.90169 19.8857 9.55078C19.708 9.19531 19.6191 8.78516 19.6191 8.32031H21.2666C21.2666 8.61654 21.335 8.87858 21.4717 9.10645C21.613 9.32975 21.8089 9.50521 22.0596 9.63281C22.3148 9.76042 22.6064 9.82422 22.9346 9.82422C23.2809 9.82422 23.5794 9.7627 23.8301 9.63965C24.0807 9.5166 24.2721 9.33431 24.4043 9.09277C24.541 8.85124 24.6094 8.55957 24.6094 8.21777C24.6094 7.8304 24.5342 7.51595 24.3838 7.27441C24.2334 7.03288 24.0192 6.85514 23.7412 6.74121C23.4632 6.62272 23.1351 6.56348 22.7568 6.56348H21.7725ZM34.2822 5.18945V6.81641C34.2822 7.5957 34.2048 8.26107 34.0498 8.8125C33.8994 9.35938 33.6807 9.80371 33.3936 10.1455C33.1064 10.4873 32.7624 10.738 32.3613 10.8975C31.9648 11.057 31.5205 11.1367 31.0283 11.1367C30.6364 11.1367 30.2718 11.0866 29.9346 10.9863C29.6019 10.8861 29.3011 10.7288 29.0322 10.5146C28.7633 10.3005 28.5332 10.0247 28.3418 9.6875C28.1549 9.3457 28.0091 8.93783 27.9043 8.46387C27.804 7.98991 27.7539 7.44076 27.7539 6.81641V5.18945C27.7539 4.4056 27.8314 3.74479 27.9863 3.20703C28.1413 2.66471 28.3623 2.22493 28.6494 1.8877C28.9365 1.5459 29.2783 1.29753 29.6748 1.14258C30.0758 0.98763 30.5225 0.910156 31.0146 0.910156C31.4111 0.910156 31.7757 0.960286 32.1084 1.06055C32.4456 1.15625 32.7464 1.30892 33.0107 1.51855C33.2796 1.72819 33.5075 2.00163 33.6943 2.33887C33.8857 2.67155 34.0316 3.07487 34.1318 3.54883C34.2321 4.01823 34.2822 4.5651 34.2822 5.18945ZM32.6348 7.04883V4.94336C32.6348 4.54688 32.612 4.19824 32.5664 3.89746C32.5208 3.59212 32.4525 3.33464 32.3613 3.125C32.2747 2.91081 32.1654 2.73763 32.0332 2.60547C31.901 2.46875 31.7507 2.37077 31.582 2.31152C31.4134 2.24772 31.2243 2.21582 31.0146 2.21582C30.7594 2.21582 30.5316 2.26595 30.3311 2.36621C30.1305 2.46191 29.9619 2.61686 29.8252 2.83105C29.6885 3.04525 29.5837 3.3278 29.5107 3.67871C29.4424 4.02507 29.4082 4.44661 29.4082 4.94336V7.04883C29.4082 7.44987 29.431 7.80306 29.4766 8.1084C29.5221 8.41374 29.5905 8.67578 29.6816 8.89453C29.7728 9.10872 29.8822 9.28646 30.0098 9.42773C30.1419 9.56445 30.2923 9.66471 30.4609 9.72852C30.6341 9.79232 30.8232 9.82422 31.0283 9.82422C31.2881 9.82422 31.5182 9.77409 31.7188 9.67383C31.9193 9.57357 32.0879 9.41406 32.2246 9.19531C32.3613 8.972 32.4639 8.68262 32.5322 8.32715C32.6006 7.97168 32.6348 7.54557 32.6348 7.04883Z" fill="black" fill-opacity="0.7"/>
<path d="M4.73047 1.0127V11H3.08301V2.96777L0.642578 3.79492V2.43457L4.53223 1.0127H4.73047ZM14.8613 9.6875V11H8.18945V9.87207L11.4297 6.33789C11.7852 5.93685 12.0654 5.59049 12.2705 5.29883C12.4756 5.00716 12.6191 4.74512 12.7012 4.5127C12.7878 4.27572 12.8311 4.04557 12.8311 3.82227C12.8311 3.50781 12.7718 3.2321 12.6533 2.99512C12.5394 2.75358 12.3708 2.56445 12.1475 2.42773C11.9242 2.28646 11.653 2.21582 11.334 2.21582C10.9648 2.21582 10.6549 2.29557 10.4043 2.45508C10.1536 2.61458 9.96452 2.83561 9.83691 3.11816C9.70931 3.39616 9.64551 3.71517 9.64551 4.0752H7.99805C7.99805 3.49642 8.13021 2.96777 8.39453 2.48926C8.65885 2.00618 9.04167 1.62337 9.54297 1.34082C10.0443 1.05371 10.6481 0.910156 11.3545 0.910156C12.0199 0.910156 12.585 1.02181 13.0498 1.24512C13.5146 1.46842 13.8678 1.78516 14.1094 2.19531C14.3555 2.60547 14.4785 3.09082 14.4785 3.65137C14.4785 3.96126 14.4284 4.26888 14.3281 4.57422C14.2279 4.87956 14.0843 5.1849 13.8975 5.49023C13.7152 5.79102 13.4987 6.09408 13.248 6.39941C12.9974 6.7002 12.7217 7.00553 12.4209 7.31543L10.2676 9.6875H14.8613ZM16.2627 10.1797C16.2627 9.92448 16.3493 9.71029 16.5225 9.53711C16.6956 9.35938 16.9303 9.27051 17.2266 9.27051C17.5273 9.27051 17.762 9.35938 17.9307 9.53711C18.1038 9.71029 18.1904 9.92448 18.1904 10.1797C18.1904 10.4349 18.1038 10.6491 17.9307 10.8223C17.762 10.9954 17.5273 11.082 17.2266 11.082C16.9303 11.082 16.6956 10.9954 16.5225 10.8223C16.3493 10.6491 16.2627 10.4349 16.2627 10.1797ZM16.2695 4.35547C16.2695 4.10026 16.3561 3.88607 16.5293 3.71289C16.7025 3.53516 16.9372 3.44629 17.2334 3.44629C17.5342 3.44629 17.7689 3.53516 17.9375 3.71289C18.1107 3.88607 18.1973 4.10026 18.1973 4.35547C18.1973 4.61068 18.1107 4.82487 17.9375 4.99805C17.7689 5.17122 17.5342 5.25781 17.2334 5.25781C16.9372 5.25781 16.7025 5.17122 16.5293 4.99805C16.3561 4.82487 16.2695 4.61068 16.2695 4.35547ZM21.7725 5.27832H22.7568C23.1396 5.27832 23.4564 5.21224 23.707 5.08008C23.9622 4.94792 24.1514 4.76562 24.2744 4.5332C24.3975 4.30078 24.459 4.03418 24.459 3.7334C24.459 3.41895 24.402 3.15007 24.2881 2.92676C24.1787 2.69889 24.0101 2.52344 23.7822 2.40039C23.5589 2.27734 23.2741 2.21582 22.9277 2.21582C22.6361 2.21582 22.3717 2.27507 22.1348 2.39355C21.9023 2.50749 21.7178 2.67155 21.5811 2.88574C21.4443 3.09538 21.376 3.34603 21.376 3.6377H19.7217C19.7217 3.10905 19.8607 2.63965 20.1387 2.22949C20.4167 1.81934 20.7949 1.49805 21.2734 1.26562C21.7565 1.02865 22.2988 0.910156 22.9004 0.910156C23.543 0.910156 24.1035 1.01725 24.582 1.23145C25.0651 1.44108 25.4411 1.75553 25.71 2.1748C25.9788 2.59408 26.1133 3.11361 26.1133 3.7334C26.1133 4.01595 26.0472 4.30306 25.915 4.59473C25.7829 4.88639 25.5869 5.15299 25.3271 5.39453C25.0674 5.63151 24.7438 5.8252 24.3564 5.97559C23.9691 6.12142 23.5202 6.19434 23.0098 6.19434H21.7725V5.27832ZM21.7725 6.56348V5.66113H23.0098C23.5931 5.66113 24.0898 5.72949 24.5 5.86621C24.9147 6.00293 25.252 6.19206 25.5117 6.43359C25.7715 6.67057 25.9606 6.94173 26.0791 7.24707C26.2021 7.55241 26.2637 7.87598 26.2637 8.21777C26.2637 8.68262 26.1794 9.09733 26.0107 9.46191C25.8467 9.82194 25.612 10.1273 25.3066 10.3779C25.0013 10.6286 24.6436 10.8177 24.2334 10.9453C23.8278 11.0729 23.3857 11.1367 22.9072 11.1367C22.4788 11.1367 22.0687 11.0775 21.6768 10.959C21.2848 10.8405 20.9339 10.665 20.624 10.4326C20.3141 10.1956 20.068 9.90169 19.8857 9.55078C19.708 9.19531 19.6191 8.78516 19.6191 8.32031H21.2666C21.2666 8.61654 21.335 8.87858 21.4717 9.10645C21.613 9.32975 21.8089 9.50521 22.0596 9.63281C22.3148 9.76042 22.6064 9.82422 22.9346 9.82422C23.2809 9.82422 23.5794 9.7627 23.8301 9.63965C24.0807 9.5166 24.2721 9.33431 24.4043 9.09277C24.541 8.85124 24.6094 8.55957 24.6094 8.21777C24.6094 7.8304 24.5342 7.51595 24.3838 7.27441C24.2334 7.03288 24.0192 6.85514 23.7412 6.74121C23.4632 6.62272 23.1351 6.56348 22.7568 6.56348H21.7725ZM34.2822 5.18945V6.81641C34.2822 7.5957 34.2048 8.26107 34.0498 8.8125C33.8994 9.35938 33.6807 9.80371 33.3936 10.1455C33.1064 10.4873 32.7624 10.738 32.3613 10.8975C31.9648 11.057 31.5205 11.1367 31.0283 11.1367C30.6364 11.1367 30.2718 11.0866 29.9346 10.9863C29.6019 10.8861 29.3011 10.7288 29.0322 10.5146C28.7633 10.3005 28.5332 10.0247 28.3418 9.6875C28.1549 9.3457 28.0091 8.93783 27.9043 8.46387C27.804 7.98991 27.7539 7.44076 27.7539 6.81641V5.18945C27.7539 4.4056 27.8314 3.74479 27.9863 3.20703C28.1413 2.66471 28.3623 2.22493 28.6494 1.8877C28.9365 1.5459 29.2783 1.29753 29.6748 1.14258C30.0758 0.98763 30.5225 0.910156 31.0146 0.910156C31.4111 0.910156 31.7757 0.960286 32.1084 1.06055C32.4456 1.15625 32.7464 1.30892 33.0107 1.51855C33.2796 1.72819 33.5075 2.00163 33.6943 2.33887C33.8857 2.67155 34.0316 3.07487 34.1318 3.54883C34.2321 4.01823 34.2822 4.5651 34.2822 5.18945ZM32.6348 7.04883V4.94336C32.6348 4.54688 32.612 4.19824 32.5664 3.89746C32.5208 3.59212 32.4525 3.33464 32.3613 3.125C32.2747 2.91081 32.1654 2.73763 32.0332 2.60547C31.901 2.46875 31.7507 2.37077 31.582 2.31152C31.4134 2.24772 31.2243 2.21582 31.0146 2.21582C30.7594 2.21582 30.5316 2.26595 30.3311 2.36621C30.1305 2.46191 29.9619 2.61686 29.8252 2.83105C29.6885 3.04525 29.5837 3.3278 29.5107 3.67871C29.4424 4.02507 29.4082 4.44661 29.4082 4.94336V7.04883C29.4082 7.44987 29.431 7.80306 29.4766 8.1084C29.5221 8.41374 29.5905 8.67578 29.6816 8.89453C29.7728 9.10872 29.8822 9.28646 30.0098 9.42773C30.1419 9.56445 30.2923 9.66471 30.4609 9.72852C30.6341 9.79232 30.8232 9.82422 31.0283 9.82422C31.2881 9.82422 31.5182 9.77409 31.7188 9.67383C31.9193 9.57357 32.0879 9.41406 32.2246 9.19531C32.3613 8.972 32.4639 8.68262 32.5322 8.32715C32.6006 7.97168 32.6348 7.54557 32.6348 7.04883Z" fill="black" fill-opacity="0.7"/>
<path d="M4.73047 1.0127V11H3.08301V2.96777L0.642578 3.79492V2.43457L4.53223 1.0127H4.73047ZM14.8613 9.6875V11H8.18945V9.87207L11.4297 6.33789C11.7852 5.93685 12.0654 5.59049 12.2705 5.29883C12.4756 5.00716 12.6191 4.74512 12.7012 4.5127C12.7878 4.27572 12.8311 4.04557 12.8311 3.82227C12.8311 3.50781 12.7718 3.2321 12.6533 2.99512C12.5394 2.75358 12.3708 2.56445 12.1475 2.42773C11.9242 2.28646 11.653 2.21582 11.334 2.21582C10.9648 2.21582 10.6549 2.29557 10.4043 2.45508C10.1536 2.61458 9.96452 2.83561 9.83691 3.11816C9.70931 3.39616 9.64551 3.71517 9.64551 4.0752H7.99805C7.99805 3.49642 8.13021 2.96777 8.39453 2.48926C8.65885 2.00618 9.04167 1.62337 9.54297 1.34082C10.0443 1.05371 10.6481 0.910156 11.3545 0.910156C12.0199 0.910156 12.585 1.02181 13.0498 1.24512C13.5146 1.46842 13.8678 1.78516 14.1094 2.19531C14.3555 2.60547 14.4785 3.09082 14.4785 3.65137C14.4785 3.96126 14.4284 4.26888 14.3281 4.57422C14.2279 4.87956 14.0843 5.1849 13.8975 5.49023C13.7152 5.79102 13.4987 6.09408 13.248 6.39941C12.9974 6.7002 12.7217 7.00553 12.4209 7.31543L10.2676 9.6875H14.8613ZM16.2627 10.1797C16.2627 9.92448 16.3493 9.71029 16.5225 9.53711C16.6956 9.35938 16.9303 9.27051 17.2266 9.27051C17.5273 9.27051 17.762 9.35938 17.9307 9.53711C18.1038 9.71029 18.1904 9.92448 18.1904 10.1797C18.1904 10.4349 18.1038 10.6491 17.9307 10.8223C17.762 10.9954 17.5273 11.082 17.2266 11.082C16.9303 11.082 16.6956 10.9954 16.5225 10.8223C16.3493 10.6491 16.2627 10.4349 16.2627 10.1797ZM16.2695 4.35547C16.2695 4.10026 16.3561 3.88607 16.5293 3.71289C16.7025 3.53516 16.9372 3.44629 17.2334 3.44629C17.5342 3.44629 17.7689 3.53516 17.9375 3.71289C18.1107 3.88607 18.1973 4.10026 18.1973 4.35547C18.1973 4.61068 18.1107 4.82487 17.9375 4.99805C17.7689 5.17122 17.5342 5.25781 17.2334 5.25781C16.9372 5.25781 16.7025 5.17122 16.5293 4.99805C16.3561 4.82487 16.2695 4.61068 16.2695 4.35547ZM21.7725 5.27832H22.7568C23.1396 5.27832 23.4564 5.21224 23.707 5.08008C23.9622 4.94792 24.1514 4.76562 24.2744 4.5332C24.3975 4.30078 24.459 4.03418 24.459 3.7334C24.459 3.41895 24.402 3.15007 24.2881 2.92676C24.1787 2.69889 24.0101 2.52344 23.7822 2.40039C23.5589 2.27734 23.2741 2.21582 22.9277 2.21582C22.6361 2.21582 22.3717 2.27507 22.1348 2.39355C21.9023 2.50749 21.7178 2.67155 21.5811 2.88574C21.4443 3.09538 21.376 3.34603 21.376 3.6377H19.7217C19.7217 3.10905 19.8607 2.63965 20.1387 2.22949C20.4167 1.81934 20.7949 1.49805 21.2734 1.26562C21.7565 1.02865 22.2988 0.910156 22.9004 0.910156C23.543 0.910156 24.1035 1.01725 24.582 1.23145C25.0651 1.44108 25.4411 1.75553 25.71 2.1748C25.9788 2.59408 26.1133 3.11361 26.1133 3.7334C26.1133 4.01595 26.0472 4.30306 25.915 4.59473C25.7829 4.88639 25.5869 5.15299 25.3271 5.39453C25.0674 5.63151 24.7438 5.8252 24.3564 5.97559C23.9691 6.12142 23.5202 6.19434 23.0098 6.19434H21.7725V5.27832ZM21.7725 6.56348V5.66113H23.0098C23.5931 5.66113 24.0898 5.72949 24.5 5.86621C24.9147 6.00293 25.252 6.19206 25.5117 6.43359C25.7715 6.67057 25.9606 6.94173 26.0791 7.24707C26.2021 7.55241 26.2637 7.87598 26.2637 8.21777C26.2637 8.68262 26.1794 9.09733 26.0107 9.46191C25.8467 9.82194 25.612 10.1273 25.3066 10.3779C25.0013 10.6286 24.6436 10.8177 24.2334 10.9453C23.8278 11.0729 23.3857 11.1367 22.9072 11.1367C22.4788 11.1367 22.0687 11.0775 21.6768 10.959C21.2848 10.8405 20.9339 10.665 20.624 10.4326C20.3141 10.1956 20.068 9.90169 19.8857 9.55078C19.708 9.19531 19.6191 8.78516 19.6191 8.32031H21.2666C21.2666 8.61654 21.335 8.87858 21.4717 9.10645C21.613 9.32975 21.8089 9.50521 22.0596 9.63281C22.3148 9.76042 22.6064 9.82422 22.9346 9.82422C23.2809 9.82422 23.5794 9.7627 23.8301 9.63965C24.0807 9.5166 24.2721 9.33431 24.4043 9.09277C24.541 8.85124 24.6094 8.55957 24.6094 8.21777C24.6094 7.8304 24.5342 7.51595 24.3838 7.27441C24.2334 7.03288 24.0192 6.85514 23.7412 6.74121C23.4632 6.62272 23.1351 6.56348 22.7568 6.56348H21.7725ZM34.2822 5.18945V6.81641C34.2822 7.5957 34.2048 8.26107 34.0498 8.8125C33.8994 9.35938 33.6807 9.80371 33.3936 10.1455C33.1064 10.4873 32.7624 10.738 32.3613 10.8975C31.9648 11.057 31.5205 11.1367 31.0283 11.1367C30.6364 11.1367 30.2718 11.0866 29.9346 10.9863C29.6019 10.8861 29.3011 10.7288 29.0322 10.5146C28.7633 10.3005 28.5332 10.0247 28.3418 9.6875C28.1549 9.3457 28.0091 8.93783 27.9043 8.46387C27.804 7.98991 27.7539 7.44076 27.7539 6.81641V5.18945C27.7539 4.4056 27.8314 3.74479 27.9863 3.20703C28.1413 2.66471 28.3623 2.22493 28.6494 1.8877C28.9365 1.5459 29.2783 1.29753 29.6748 1.14258C30.0758 0.98763 30.5225 0.910156 31.0146 0.910156C31.4111 0.910156 31.7757 0.960286 32.1084 1.06055C32.4456 1.15625 32.7464 1.30892 33.0107 1.51855C33.2796 1.72819 33.5075 2.00163 33.6943 2.33887C33.8857 2.67155 34.0316 3.07487 34.1318 3.54883C34.2321 4.01823 34.2822 4.5651 34.2822 5.18945ZM32.6348 7.04883V4.94336C32.6348 4.54688 32.612 4.19824 32.5664 3.89746C32.5208 3.59212 32.4525 3.33464 32.3613 3.125C32.2747 2.91081 32.1654 2.73763 32.0332 2.60547C31.901 2.46875 31.7507 2.37077 31.582 2.31152C31.4134 2.24772 31.2243 2.21582 31.0146 2.21582C30.7594 2.21582 30.5316 2.26595 30.3311 2.36621C30.1305 2.46191 29.9619 2.61686 29.8252 2.83105C29.6885 3.04525 29.5837 3.3278 29.5107 3.67871C29.4424 4.02507 29.4082 4.44661 29.4082 4.94336V7.04883C29.4082 7.44987 29.431 7.80306 29.4766 8.1084C29.5221 8.41374 29.5905 8.67578 29.6816 8.89453C29.7728 9.10872 29.8822 9.28646 30.0098 9.42773C30.1419 9.56445 30.2923 9.66471 30.4609 9.72852C30.6341 9.79232 30.8232 9.82422 31.0283 9.82422C31.2881 9.82422 31.5182 9.77409 31.7188 9.67383C31.9193 9.57357 32.0879 9.41406 32.2246 9.19531C32.3613 8.972 32.4639 8.68262 32.5322 8.32715C32.6006 7.97168 32.6348 7.54557 32.6348 7.04883Z" fill="black" fill-opacity="0.7"/>
</svg>
