<svg width="21" height="18" viewBox="0 0 21 18" fill="none" xmlns="http://www.w3.org/2000/svg">
<path d="M18.5 2H15.33L13.5 0H7.5L5.67 2H2.5C1.96957 2 1.46086 2.21071 1.08579 2.58579C0.710714 2.96086 0.5 3.46957 0.5 4V16C0.5 16.5304 0.710714 17.0391 1.08579 17.4142C1.46086 17.7893 1.96957 18 2.5 18H18.5C19.0304 18 19.5391 17.7893 19.9142 17.4142C20.2893 17.0391 20.5 16.5304 20.5 16V4C20.5 3.46957 20.2893 2.96086 19.9142 2.58579C19.5391 2.21071 19.0304 2 18.5 2ZM18.5 16H2.5V4H6.55L8.38 2H12.62L14.45 4H18.5V16ZM10.5 5C9.17392 5 7.90215 5.52678 6.96447 6.46447C6.02678 7.40215 5.5 8.67392 5.5 10C5.5 11.3261 6.02678 12.5979 6.96447 13.5355C7.90215 14.4732 9.17392 15 10.5 15C11.8261 15 13.0979 14.4732 14.0355 13.5355C14.9732 12.5979 15.5 11.3261 15.5 10C15.5 8.67392 14.9732 7.40215 14.0355 6.46447C13.0979 5.52678 11.8261 5 10.5 5ZM10.5 13C9.70435 13 8.94129 12.6839 8.37868 12.1213C7.81607 11.5587 7.5 10.7956 7.5 10C7.5 9.20435 7.81607 8.44129 8.37868 7.87868C8.94129 7.31607 9.70435 7 10.5 7C11.2956 7 12.0587 7.31607 12.6213 7.87868C13.1839 8.44129 13.5 9.20435 13.5 10C13.5 10.7956 13.1839 11.5587 12.6213 12.1213C12.0587 12.6839 11.2956 13 10.5 13Z" fill="black"/>
</svg>
